<svg width="56" height="56" viewBox="0 0 56 56" fill="none" xmlns="http://www.w3.org/2000/svg">
<g filter="url(#filter0_d_121_24)">
<rect x="6" y="4" width="44" height="44" rx="5" fill="#9155FD"/>
<path d="M37.9199 20.62C37.8185 20.3757 37.6243 20.1815 37.3799 20.08C37.2597 20.0288 37.1306 20.0016 36.9999 20H31.9999C31.7347 20 31.4804 20.1054 31.2928 20.2929C31.1053 20.4804 30.9999 20.7348 30.9999 21C30.9999 21.2652 31.1053 21.5196 31.2928 21.7071C31.4804 21.8946 31.7347 22 31.9999 22H34.5899L28.9999 27.59L25.7099 24.29C25.617 24.1963 25.5064 24.1219 25.3845 24.0711C25.2627 24.0203 25.132 23.9942 24.9999 23.9942C24.8679 23.9942 24.7372 24.0203 24.6154 24.0711C24.4935 24.1219 24.3829 24.1963 24.2899 24.29L18.2899 30.29C18.1962 30.383 18.1218 30.4936 18.071 30.6154C18.0203 30.7373 17.9941 30.868 17.9941 31C17.9941 31.132 18.0203 31.2627 18.071 31.3846C18.1218 31.5064 18.1962 31.617 18.2899 31.71C18.3829 31.8037 18.4935 31.8781 18.6154 31.9289C18.7372 31.9797 18.8679 32.0058 18.9999 32.0058C19.132 32.0058 19.2627 31.9797 19.3845 31.9289C19.5064 31.8781 19.617 31.8037 19.7099 31.71L24.9999 26.41L28.2899 29.71C28.3829 29.8037 28.4935 29.8781 28.6154 29.9289C28.7372 29.9797 28.8679 30.0058 28.9999 30.0058C29.132 30.0058 29.2627 29.9797 29.3845 29.9289C29.5064 29.8781 29.617 29.8037 29.7099 29.71L35.9999 23.41V26C35.9999 26.2652 36.1053 26.5196 36.2928 26.7071C36.4804 26.8946 36.7347 27 36.9999 27C37.2652 27 37.5195 26.8946 37.707 26.7071C37.8946 26.5196 37.9999 26.2652 37.9999 26V21C37.9984 20.8693 37.9712 20.7402 37.9199 20.62Z" fill="white"/>
</g>
<defs>
<filter id="filter0_d_121_24" x="0" y="0" width="56" height="56" filterUnits="userSpaceOnUse" color-interpolation-filters="sRGB">
<feFlood flood-opacity="0" result="BackgroundImageFix"/>
<feColorMatrix in="SourceAlpha" type="matrix" values="0 0 0 0 0 0 0 0 0 0 0 0 0 0 0 0 0 0 127 0" result="hardAlpha"/>
<feOffset dy="2"/>
<feGaussianBlur stdDeviation="3"/>
<feComposite in2="hardAlpha" operator="out"/>
<feColorMatrix type="matrix" values="0 0 0 0 0 0 0 0 0 0 0 0 0 0 0 0 0 0 0.25 0"/>
<feBlend mode="normal" in2="BackgroundImageFix" result="effect1_dropShadow_121_24"/>
<feBlend mode="normal" in="SourceGraphic" in2="effect1_dropShadow_121_24" result="shape"/>
</filter>
</defs>
</svg>
