<svg width="40" height="40" viewBox="0 0 40 40" fill="none" xmlns="http://www.w3.org/2000/svg">
<circle cx="20" cy="20" r="20" fill="#9155FD"/>
<path d="M19.2955 28.8182V10.6364H20.4602V28.8182H19.2955ZM23.2159 16.0909C23.1307 15.3712 22.785 14.8125 22.179 14.4148C21.5729 14.017 20.8295 13.8182 19.9489 13.8182C19.3049 13.8182 18.7415 13.9223 18.2585 14.1307C17.7803 14.339 17.4063 14.6255 17.1364 14.9901C16.8712 15.3546 16.7386 15.7689 16.7386 16.233C16.7386 16.6212 16.831 16.955 17.0156 17.2344C17.205 17.509 17.4465 17.7386 17.7401 17.9233C18.0336 18.1032 18.3414 18.2524 18.6634 18.3707C18.9853 18.4844 19.2812 18.5767 19.5511 18.6477L21.0284 19.0455C21.4072 19.1449 21.8286 19.2822 22.2926 19.4574C22.7614 19.6326 23.2088 19.8717 23.6349 20.1747C24.0658 20.473 24.4209 20.8565 24.7003 21.3253C24.9796 21.794 25.1193 22.3693 25.1193 23.0511C25.1193 23.8371 24.9134 24.5473 24.5014 25.1818C24.0942 25.8163 23.4976 26.3205 22.7116 26.6946C21.9304 27.0687 20.9811 27.2557 19.8636 27.2557C18.822 27.2557 17.92 27.0876 17.1577 26.7514C16.4001 26.4152 15.8035 25.9465 15.3679 25.3452C14.937 24.7438 14.6932 24.0455 14.6364 23.25H16.4545C16.5019 23.7992 16.6866 24.2538 17.0085 24.6136C17.3352 24.9687 17.7472 25.2339 18.2443 25.4091C18.7462 25.5795 19.286 25.6648 19.8636 25.6648C20.536 25.6648 21.1397 25.5559 21.6747 25.3381C22.2098 25.1155 22.6335 24.8078 22.946 24.4148C23.2585 24.017 23.4148 23.553 23.4148 23.0227C23.4148 22.5398 23.2798 22.1468 23.0099 21.8438C22.7401 21.5407 22.3849 21.2945 21.9446 21.1051C21.5043 20.9157 21.0284 20.75 20.517 20.608L18.7273 20.0966C17.5909 19.7699 16.6913 19.3035 16.0284 18.6974C15.3655 18.0914 15.0341 17.2983 15.0341 16.3182C15.0341 15.5038 15.2543 14.7936 15.6946 14.1875C16.1397 13.5767 16.7363 13.1032 17.4844 12.767C18.2372 12.4261 19.0777 12.2557 20.0057 12.2557C20.9432 12.2557 21.7765 12.4238 22.5057 12.7599C23.2348 13.0914 23.8125 13.5459 24.2386 14.1236C24.6695 14.7012 24.8968 15.357 24.9205 16.0909H23.2159Z" fill="white"/>
</svg>
