<svg width="56" height="56" viewBox="0 0 56 56" fill="none" xmlns="http://www.w3.org/2000/svg">
<g filter="url(#filter0_d_121_40)">
<rect x="6" y="4" width="44" height="44" rx="5" fill="#16B1FF"/>
<path d="M26.7955 34.8182V16.6364H27.9602V34.8182H26.7955ZM30.7159 22.0909C30.6307 21.3712 30.285 20.8125 29.679 20.4148C29.0729 20.017 28.3295 19.8182 27.4489 19.8182C26.8049 19.8182 26.2415 19.9223 25.7585 20.1307C25.2803 20.339 24.9063 20.6255 24.6364 20.9901C24.3712 21.3546 24.2386 21.7689 24.2386 22.233C24.2386 22.6212 24.331 22.955 24.5156 23.2344C24.705 23.509 24.9465 23.7386 25.2401 23.9233C25.5336 24.1032 25.8414 24.2524 26.1634 24.3707C26.4853 24.4844 26.7812 24.5767 27.0511 24.6477L28.5284 25.0455C28.9072 25.1449 29.3286 25.2822 29.7926 25.4574C30.2614 25.6326 30.7088 25.8717 31.1349 26.1747C31.5658 26.473 31.9209 26.8565 32.2003 27.3253C32.4796 27.794 32.6193 28.3693 32.6193 29.0511C32.6193 29.8371 32.4134 30.5473 32.0014 31.1818C31.5942 31.8163 30.9976 32.3205 30.2116 32.6946C29.4304 33.0687 28.4811 33.2557 27.3636 33.2557C26.322 33.2557 25.42 33.0876 24.6577 32.7514C23.9001 32.4152 23.3035 31.9465 22.8679 31.3452C22.437 30.7438 22.1932 30.0455 22.1364 29.25H23.9545C24.0019 29.7992 24.1866 30.2538 24.5085 30.6136C24.8352 30.9687 25.2472 31.2339 25.7443 31.4091C26.2462 31.5795 26.786 31.6648 27.3636 31.6648C28.036 31.6648 28.6397 31.5559 29.1747 31.3381C29.7098 31.1155 30.1335 30.8078 30.446 30.4148C30.7585 30.017 30.9148 29.553 30.9148 29.0227C30.9148 28.5398 30.7798 28.1468 30.5099 27.8438C30.2401 27.5407 29.8849 27.2945 29.4446 27.1051C29.0043 26.9157 28.5284 26.75 28.017 26.608L26.2273 26.0966C25.0909 25.7699 24.1913 25.3035 23.5284 24.6974C22.8655 24.0914 22.5341 23.2983 22.5341 22.3182C22.5341 21.5038 22.7543 20.7936 23.1946 20.1875C23.6397 19.5767 24.2363 19.1032 24.9844 18.767C25.7372 18.4261 26.5777 18.2557 27.5057 18.2557C28.4432 18.2557 29.2765 18.4238 30.0057 18.7599C30.7348 19.0914 31.3125 19.5459 31.7386 20.1236C32.1695 20.7012 32.3968 21.357 32.4205 22.0909H30.7159Z" fill="white"/>
<path d="M26.7955 34.8182V16.6364H27.9602V34.8182H26.7955ZM30.7159 22.0909C30.6307 21.3712 30.285 20.8125 29.679 20.4148C29.0729 20.017 28.3295 19.8182 27.4489 19.8182C26.8049 19.8182 26.2415 19.9223 25.7585 20.1307C25.2803 20.339 24.9063 20.6255 24.6364 20.9901C24.3712 21.3546 24.2386 21.7689 24.2386 22.233C24.2386 22.6212 24.331 22.955 24.5156 23.2344C24.705 23.509 24.9465 23.7386 25.2401 23.9233C25.5336 24.1032 25.8414 24.2524 26.1634 24.3707C26.4853 24.4844 26.7812 24.5767 27.0511 24.6477L28.5284 25.0455C28.9072 25.1449 29.3286 25.2822 29.7926 25.4574C30.2614 25.6326 30.7088 25.8717 31.1349 26.1747C31.5658 26.473 31.9209 26.8565 32.2003 27.3253C32.4796 27.794 32.6193 28.3693 32.6193 29.0511C32.6193 29.8371 32.4134 30.5473 32.0014 31.1818C31.5942 31.8163 30.9976 32.3205 30.2116 32.6946C29.4304 33.0687 28.4811 33.2557 27.3636 33.2557C26.322 33.2557 25.42 33.0876 24.6577 32.7514C23.9001 32.4152 23.3035 31.9465 22.8679 31.3452C22.437 30.7438 22.1932 30.0455 22.1364 29.25H23.9545C24.0019 29.7992 24.1866 30.2538 24.5085 30.6136C24.8352 30.9687 25.2472 31.2339 25.7443 31.4091C26.2462 31.5795 26.786 31.6648 27.3636 31.6648C28.036 31.6648 28.6397 31.5559 29.1747 31.3381C29.7098 31.1155 30.1335 30.8078 30.446 30.4148C30.7585 30.017 30.9148 29.553 30.9148 29.0227C30.9148 28.5398 30.7798 28.1468 30.5099 27.8438C30.2401 27.5407 29.8849 27.2945 29.4446 27.1051C29.0043 26.9157 28.5284 26.75 28.017 26.608L26.2273 26.0966C25.0909 25.7699 24.1913 25.3035 23.5284 24.6974C22.8655 24.0914 22.5341 23.2983 22.5341 22.3182C22.5341 21.5038 22.7543 20.7936 23.1946 20.1875C23.6397 19.5767 24.2363 19.1032 24.9844 18.767C25.7372 18.4261 26.5777 18.2557 27.5057 18.2557C28.4432 18.2557 29.2765 18.4238 30.0057 18.7599C30.7348 19.0914 31.3125 19.5459 31.7386 20.1236C32.1695 20.7012 32.3968 21.357 32.4205 22.0909H30.7159Z" fill="white"/>
</g>
<defs>
<filter id="filter0_d_121_40" x="0" y="0" width="56" height="56" filterUnits="userSpaceOnUse" color-interpolation-filters="sRGB">
<feFlood flood-opacity="0" result="BackgroundImageFix"/>
<feColorMatrix in="SourceAlpha" type="matrix" values="0 0 0 0 0 0 0 0 0 0 0 0 0 0 0 0 0 0 127 0" result="hardAlpha"/>
<feOffset dy="2"/>
<feGaussianBlur stdDeviation="3"/>
<feComposite in2="hardAlpha" operator="out"/>
<feColorMatrix type="matrix" values="0 0 0 0 0 0 0 0 0 0 0 0 0 0 0 0 0 0 0.25 0"/>
<feBlend mode="normal" in2="BackgroundImageFix" result="effect1_dropShadow_121_40"/>
<feBlend mode="normal" in="SourceGraphic" in2="effect1_dropShadow_121_40" result="shape"/>
</filter>
</defs>
</svg>
