<svg width="40" height="40" viewBox="0 0 40 40" fill="none" xmlns="http://www.w3.org/2000/svg">
<circle cx="20" cy="20" r="20" fill="#A2A5A6"/>
<path d="M16.6667 24.1667C16.2084 24.1667 15.8159 24.0033 15.4892 23.6767C15.1626 23.35 14.9995 22.9578 15.0001 22.5V17.5C15.0001 17.2639 15.0801 17.0658 15.2401 16.9058C15.4001 16.7458 15.5979 16.6661 15.8334 16.6667C16.0695 16.6667 16.2676 16.7467 16.4276 16.9067C16.5876 17.0667 16.6673 17.2644 16.6667 17.5V22.5H23.3334C23.5695 22.5 23.7676 22.58 23.9276 22.74C24.0876 22.9 24.1673 23.0978 24.1667 23.3333C24.1667 23.5694 24.0867 23.7675 23.9267 23.9275C23.7667 24.0875 23.569 24.1672 23.3334 24.1667H16.6667ZM20.0001 20.8333C19.5417 20.8333 19.1492 20.67 18.8226 20.3433C18.4959 20.0167 18.3329 19.6244 18.3334 19.1667V14.1667C18.3334 13.7083 18.4967 13.3158 18.8234 12.9892C19.1501 12.6625 19.5423 12.4994 20.0001 12.5H26.6667C27.1251 12.5 27.5176 12.6633 27.8442 12.99C28.1709 13.3167 28.334 13.7089 28.3334 14.1667V19.1667C28.3334 19.625 28.1701 20.0175 27.8434 20.3442C27.5167 20.6708 27.1245 20.8339 26.6667 20.8333H20.0001ZM20.0001 19.1667H26.6667V15.8333H20.0001V19.1667ZM13.3334 27.5C12.8751 27.5 12.4826 27.3367 12.1559 27.01C11.8292 26.6833 11.6662 26.2911 11.6667 25.8333V20.8333C11.6667 20.5972 11.7467 20.3992 11.9067 20.2392C12.0667 20.0792 12.2645 19.9994 12.5001 20C12.7362 20 12.9342 20.08 13.0942 20.24C13.2542 20.4 13.334 20.5978 13.3334 20.8333V25.8333H20.0001C20.2362 25.8333 20.4342 25.9133 20.5942 26.0733C20.7542 26.2333 20.834 26.4311 20.8334 26.6667C20.8334 26.9028 20.7534 27.1008 20.5934 27.2608C20.4334 27.4208 20.2356 27.5006 20.0001 27.5H13.3334Z" fill="#FCFAFF"/>
</svg>
