<svg width="44" height="44" viewBox="0 0 44 44" fill="none" xmlns="http://www.w3.org/2000/svg">
<rect width="44" height="44" rx="5" fill="#A2A5A6"/>
<path d="M18.334 26.5833C17.8298 26.5833 17.3981 26.4037 17.0387 26.0443C16.6794 25.685 16.5 25.2536 16.5007 24.75V19.25C16.5007 18.9903 16.5887 18.7724 16.7647 18.5964C16.9407 18.4204 17.1582 18.3327 17.4173 18.3333C17.677 18.3333 17.8949 18.4213 18.0709 18.5973C18.2469 18.7733 18.3346 18.9909 18.334 19.25V24.75H25.6673C25.927 24.75 26.1449 24.838 26.3209 25.014C26.4969 25.19 26.5846 25.4076 26.584 25.6667C26.584 25.9264 26.496 26.1443 26.32 26.3203C26.144 26.4963 25.9264 26.5839 25.6673 26.5833H18.334ZM22.0007 22.9167C21.4965 22.9167 21.0647 22.737 20.7054 22.3777C20.3461 22.0183 20.1667 21.5869 20.1673 21.0833V15.5833C20.1673 15.0792 20.347 14.6474 20.7063 14.2881C21.0657 13.9288 21.4971 13.7494 22.0007 13.75H29.334C29.8382 13.75 30.2699 13.9297 30.6292 14.289C30.9886 14.6483 31.1679 15.0798 31.1673 15.5833V21.0833C31.1673 21.5875 30.9877 22.0193 30.6283 22.3786C30.269 22.7379 29.8375 22.9173 29.334 22.9167H22.0007ZM22.0007 21.0833H29.334V17.4167H22.0007V21.0833ZM14.6673 30.25C14.1632 30.25 13.7314 30.0703 13.3721 29.711C13.0127 29.3517 12.8334 28.9202 12.834 28.4167V22.9167C12.834 22.6569 12.922 22.4391 13.098 22.2631C13.274 22.0871 13.4915 21.9994 13.7507 22C14.0104 22 14.2282 22.088 14.4042 22.264C14.5802 22.44 14.6679 22.6576 14.6673 22.9167V28.4167H22.0007C22.2604 28.4167 22.4782 28.5047 22.6542 28.6807C22.8302 28.8567 22.9179 29.0742 22.9173 29.3333C22.9173 29.5931 22.8293 29.8109 22.6533 29.9869C22.4773 30.1629 22.2598 30.2506 22.0007 30.25H14.6673Z" fill="#FCFAFF"/>
</svg>
