<svg width="40" height="40" viewBox="0 0 40 40" fill="none" xmlns="http://www.w3.org/2000/svg">
<circle cx="20" cy="20" r="20" fill="#56CA00"/>
<path d="M18.9166 12.375L17.3332 13.9583V15.5417H14.9582C14.0478 15.5417 13.4699 16.3333 13.3749 17.125L12.5832 25.0417C12.4882 25.8333 13.0107 26.625 14.1666 26.625H26.8332C27.9891 26.625 28.5116 25.8333 28.4166 25.0417L27.6249 17.125C27.5299 16.3333 26.8807 15.5417 26.0416 15.5417H23.6666V13.9583L22.0832 12.375H18.9166ZM18.9166 13.9583H22.0832V15.5417H18.9166V13.9583ZM19.7082 17.9167H21.2916V20.2917H23.6666V21.875H21.2916V24.25H19.7082V21.875H17.3332V20.2917H19.7082V17.9167Z" fill="white"/>
</svg>
