<svg width="56" height="56" viewBox="0 0 56 56" fill="none" xmlns="http://www.w3.org/2000/svg">
<g filter="url(#filter0_d_121_32)">
<rect x="6" y="4" width="44" height="44" rx="5" fill="#FFB400"/>
<g clip-path="url(#clip0_121_32)">
<path d="M21.375 31.125C21.375 31.2568 21.4108 31.3789 21.4824 31.4912C21.554 31.6035 21.6507 31.7012 21.7725 31.7842C21.8942 31.8672 22.041 31.9355 22.2129 31.9893C22.3848 32.043 22.5638 32.0674 22.75 32.0625H29.625L32.3857 33H22.75C22.3704 33 22.016 32.9512 21.6865 32.8535C21.3571 32.7559 21.0635 32.6216 20.8057 32.4507C20.5479 32.2798 20.3509 32.082 20.2148 31.8574C20.0788 31.6328 20.0072 31.3887 20 31.125V19.875C20 19.6357 20.0752 19.4038 20.2256 19.1792C20.376 18.9546 20.5801 18.7544 20.8379 18.5786C21.0957 18.4028 21.3893 18.2637 21.7188 18.1611C22.0482 18.0586 22.3919 18.0049 22.75 18H37.875V22.9878L36.5 22.519V18.9375H22.75C22.5853 18.9375 22.4206 18.9644 22.2559 19.0181C22.0911 19.0718 21.9443 19.145 21.8154 19.2378C21.6865 19.3306 21.5827 19.4307 21.5039 19.5381C21.4251 19.6455 21.3822 19.7578 21.375 19.875V29.5137C21.5827 29.4307 21.8011 29.3672 22.0303 29.3232C22.2594 29.2793 22.4993 29.2549 22.75 29.25H28.25V30.1875H22.75C22.5566 30.1875 22.3776 30.2119 22.2129 30.2607C22.0482 30.3096 21.9049 30.3755 21.7832 30.4585C21.6615 30.5415 21.5612 30.6416 21.4824 30.7588C21.4036 30.876 21.3678 30.998 21.375 31.125ZM42 25.4341V31.0151L35.8125 33.1172L29.625 31.0151V25.4341L35.8125 23.332L42 25.4341ZM35.8125 24.3794L31.8486 25.7271L35.8125 27.0747L39.7764 25.7271L35.8125 24.3794ZM31 30.4365L35.125 31.8354V27.8877L31 26.4814V30.4365ZM40.625 30.4365V26.4814L36.5 27.8877V31.8354L40.625 30.4365Z" fill="white"/>
</g>
</g>
<defs>
<filter id="filter0_d_121_32" x="0" y="0" width="56" height="56" filterUnits="userSpaceOnUse" color-interpolation-filters="sRGB">
<feFlood flood-opacity="0" result="BackgroundImageFix"/>
<feColorMatrix in="SourceAlpha" type="matrix" values="0 0 0 0 0 0 0 0 0 0 0 0 0 0 0 0 0 0 127 0" result="hardAlpha"/>
<feOffset dy="2"/>
<feGaussianBlur stdDeviation="3"/>
<feComposite in2="hardAlpha" operator="out"/>
<feColorMatrix type="matrix" values="0 0 0 0 0 0 0 0 0 0 0 0 0 0 0 0 0 0 0.25 0"/>
<feBlend mode="normal" in2="BackgroundImageFix" result="effect1_dropShadow_121_32"/>
<feBlend mode="normal" in="SourceGraphic" in2="effect1_dropShadow_121_32" result="shape"/>
</filter>
<clipPath id="clip0_121_32">
<rect width="22" height="15" fill="white" transform="translate(20 18)"/>
</clipPath>
</defs>
</svg>
