<svg width="44" height="44" viewBox="0 0 44 44" fill="none" xmlns="http://www.w3.org/2000/svg">
<rect width="44" height="44" rx="5" fill="#56CA00"/>
<g clip-path="url(#clip0_0_1)">
<path d="M20.3443 15L18.761 16.5833V18.1667H16.386C15.4755 18.1667 14.8976 18.9583 14.8026 19.75L14.011 27.6667C13.916 28.4583 14.4385 29.25 15.5943 29.25H28.261C29.4168 29.25 29.9393 28.4583 29.8443 27.6667L29.0526 19.75C28.9576 18.9583 28.3085 18.1667 27.4693 18.1667H25.0943V16.5833L23.511 15H20.3443ZM20.3443 16.5833H23.511V18.1667H20.3443V16.5833ZM21.136 20.5417H22.7193V22.9167H25.0943V24.5H22.7193V26.875H21.136V24.5H18.761V22.9167H21.136V20.5417Z" fill="white"/>
</g>
<defs>
<clipPath id="clip0_0_1">
<rect width="24" height="24" fill="white" transform="translate(10 10)"/>
</clipPath>
</defs>
</svg>
